<mxfile host="app.diagrams.net" modified="2024-02-20T18:16:13.437Z" agent="Mozilla/5.0 (Windows NT 10.0; Win64; x64) AppleWebKit/537.36 (KHTML, like Gecko) Chrome/112.0.0.0 Safari/537.36" version="23.1.5" etag="tSaTabP2kzQD1h2Mt_CI" type="github">
  <diagram name="PÃ¡gina-1" id="rPQIPqURVywA5XHyYEMp">
    <mxGraphModel>
      <root>
        <mxCell id="0" />
        <mxCell id="1" parent="0" />
      </root>
    </mxGraphModel>
  </diagram>
</mxfile>
